<svg width="48" height="14" viewBox="0 0 48 14" fill="none" xmlns="http://www.w3.org/2000/svg">
<path d="M2.97886 0.908342C3.49229 0.908342 3.88462 0.966015 4.15587 1.08136C4.42711 1.1967 4.66445 1.32166 4.86789 1.45623C4.98414 1.52352 5.07616 1.57638 5.14398 1.61483C5.22148 1.64367 5.29413 1.65808 5.36194 1.65808C5.45881 1.65808 5.52663 1.60522 5.56538 1.49949C5.61381 1.39375 5.65256 1.23515 5.68162 1.02369H6.01584C6.00615 1.1967 5.99162 1.40336 5.97224 1.64367C5.96256 1.87436 5.95287 2.18194 5.94318 2.56643C5.94318 2.95091 5.94318 3.45554 5.94318 4.08033H5.60897C5.57991 3.60934 5.47335 3.15276 5.28929 2.71061C5.11491 2.26845 4.85336 1.908 4.50461 1.62925C4.16556 1.3505 3.72962 1.21112 3.19682 1.21112C2.70277 1.21112 2.29106 1.36011 1.96169 1.65808C1.642 1.94645 1.48216 2.33093 1.48216 2.81154C1.48216 3.23447 1.58872 3.59011 1.80184 3.87848C2.01497 4.15723 2.30559 4.42156 2.67371 4.67147C3.05151 4.91177 3.47775 5.18091 3.95243 5.47889C4.4368 5.78647 4.87273 6.09406 5.26022 6.40165C5.64772 6.69962 5.95287 7.03124 6.17568 7.3965C6.39849 7.76176 6.50989 8.20391 6.50989 8.72297C6.50989 9.34775 6.35974 9.8668 6.05943 10.2801C5.76881 10.6838 5.37647 10.9866 4.88242 11.1885C4.38836 11.3903 3.84587 11.4912 3.25495 11.4912C2.71245 11.4912 2.28137 11.4336 1.96169 11.3182C1.642 11.2029 1.37076 11.0827 1.14795 10.9578C0.934828 10.8232 0.770143 10.7559 0.653895 10.7559C0.557022 10.7559 0.484367 10.8088 0.43593 10.9145C0.397181 11.0203 0.363275 11.1789 0.334213 11.3903H0C0.0193747 11.1789 0.029062 10.9337 0.029062 10.655C0.0387493 10.3666 0.043593 9.99176 0.043593 9.53038C0.0532804 9.069 0.058124 8.48747 0.058124 7.78579H0.392337C0.431087 8.38174 0.537647 8.93924 0.712019 9.45829C0.896079 9.97734 1.17217 10.3955 1.54029 10.7127C1.91809 11.0203 2.41699 11.174 3.03698 11.174C3.36635 11.174 3.6715 11.1116 3.95243 10.9866C4.23337 10.8617 4.46102 10.6646 4.63539 10.3955C4.80976 10.1263 4.89695 9.7803 4.89695 9.35736C4.89695 8.96327 4.80008 8.61723 4.60633 8.31926C4.42227 8.02128 4.16071 7.74734 3.82165 7.49743C3.49229 7.2379 3.10479 6.97357 2.65917 6.70443C2.20387 6.41607 1.77763 6.1277 1.38045 5.83934C0.983265 5.55098 0.663583 5.21456 0.421399 4.83007C0.188903 4.44559 0.0726551 3.98901 0.0726551 3.46035C0.0726551 2.87401 0.208278 2.39341 0.479523 2.01854C0.760456 1.64367 1.11889 1.36492 1.55482 1.18229C2.00044 0.999657 2.47511 0.908342 2.97886 0.908342Z" fill="#5F6AFF"/>
<path d="M10.0661 0V5.2482C10.3083 4.65225 10.6474 4.23893 11.0833 4.00824C11.5289 3.76794 11.9988 3.64779 12.4928 3.64779C12.8803 3.64779 13.1951 3.70065 13.4373 3.80638C13.6892 3.90251 13.8975 4.03708 14.0622 4.21009C14.2365 4.39272 14.3625 4.62822 14.44 4.91658C14.5175 5.20494 14.5562 5.59423 14.5562 6.08445V9.94851C14.5562 10.3522 14.6337 10.6262 14.7887 10.7703C14.9534 10.9145 15.2246 10.9866 15.6024 10.9866V11.2894C15.4281 11.2798 15.1665 11.2702 14.8178 11.2606C14.469 11.2413 14.13 11.2317 13.8006 11.2317C13.4615 11.2317 13.1273 11.2413 12.798 11.2606C12.4783 11.2702 12.2409 11.2798 12.0859 11.2894V10.9866C12.4153 10.9866 12.6478 10.9145 12.7834 10.7703C12.919 10.6262 12.9869 10.3522 12.9869 9.94851V5.68074C12.9869 5.40199 12.9626 5.15208 12.9142 4.931C12.8658 4.70031 12.7592 4.51768 12.5945 4.38311C12.4395 4.23893 12.207 4.16684 11.897 4.16684C11.5483 4.16684 11.2335 4.26777 10.9525 4.46962C10.6813 4.66186 10.4633 4.931 10.2986 5.27703C10.1436 5.62307 10.0661 6.01716 10.0661 6.45932V9.94851C10.0661 10.3522 10.1339 10.6262 10.2696 10.7703C10.4052 10.9145 10.6377 10.9866 10.967 10.9866V11.2894C10.8024 11.2798 10.5602 11.2702 10.2405 11.2606C9.9305 11.2413 9.61082 11.2317 9.28145 11.2317C8.9424 11.2317 8.59365 11.2413 8.23522 11.2606C7.88648 11.2702 7.62492 11.2798 7.45055 11.2894V10.9866C7.82835 10.9866 8.09475 10.9145 8.24975 10.7703C8.41444 10.6262 8.49678 10.3522 8.49678 9.94851V1.73017C8.49678 1.29763 8.41928 0.980433 8.26428 0.778579C8.11897 0.567113 7.84773 0.46138 7.45055 0.46138V0.1586C7.76054 0.187436 8.06085 0.201854 8.35147 0.201854C8.67115 0.201854 8.9763 0.187436 9.26692 0.1586C9.55754 0.120151 9.82394 0.0672849 10.0661 0Z" fill="#5F6AFF"/>
<path d="M19.827 3.64779C20.476 3.64779 21.0524 3.78235 21.5562 4.05149C22.0599 4.32063 22.4619 4.74356 22.7623 5.32029C23.0626 5.89701 23.2127 6.65156 23.2127 7.58393C23.2127 8.51631 23.0626 9.27085 22.7623 9.84758C22.4619 10.4147 22.0599 10.8328 21.5562 11.102C21.0524 11.3615 20.476 11.4912 19.827 11.4912C19.1876 11.4912 18.6112 11.3615 18.0978 11.102C17.5844 10.8328 17.1775 10.4147 16.8772 9.84758C16.5866 9.27085 16.4413 8.51631 16.4413 7.58393C16.4413 6.65156 16.5866 5.89701 16.8772 5.32029C17.1775 4.74356 17.5844 4.32063 18.0978 4.05149C18.6112 3.78235 19.1876 3.64779 19.827 3.64779ZM19.827 3.93615C19.3232 3.93615 18.9115 4.22451 18.5919 4.80124C18.2722 5.36835 18.1123 6.29592 18.1123 7.58393C18.1123 8.87195 18.2722 9.79952 18.5919 10.3666C18.9115 10.9241 19.3232 11.2029 19.827 11.2029C20.321 11.2029 20.7279 10.9241 21.0476 10.3666C21.377 9.79952 21.5416 8.87195 21.5416 7.58393C21.5416 6.29592 21.377 5.36835 21.0476 4.80124C20.7279 4.22451 20.321 3.93615 19.827 3.93615Z" fill="#5F6AFF"/>
<path d="M26.7686 3.69104V12.5294C26.7686 12.9523 26.8897 13.2358 27.1319 13.38C27.3741 13.5242 27.7083 13.5963 28.1345 13.5963V13.8991C27.9117 13.8895 27.6017 13.875 27.2045 13.8558C26.8074 13.8462 26.3811 13.8414 25.9258 13.8414C25.6061 13.8414 25.2913 13.8462 24.9813 13.8558C24.6713 13.875 24.434 13.8895 24.2693 13.8991V13.5963C24.6083 13.5963 24.8457 13.529 24.9813 13.3944C25.1266 13.2695 25.1993 13.0292 25.1993 12.6735V5.42122C25.1993 4.98867 25.1266 4.67147 24.9813 4.46962C24.836 4.25815 24.5599 4.15242 24.153 4.15242V3.84964C24.463 3.87848 24.7633 3.89289 25.054 3.89289C25.3736 3.89289 25.6788 3.87848 25.9694 3.84964C26.26 3.81119 26.5264 3.75832 26.7686 3.69104ZM29.079 3.64779C29.5828 3.64779 30.0332 3.78716 30.4304 4.06591C30.8373 4.33505 31.157 4.73395 31.3895 5.26262C31.622 5.79128 31.7382 6.44971 31.7382 7.2379C31.7382 7.81462 31.6704 8.36251 31.5348 8.88157C31.3992 9.39101 31.1909 9.84277 30.9099 10.2369C30.6387 10.6214 30.2948 10.9289 29.8782 11.1596C29.4617 11.3807 28.9676 11.4912 28.3961 11.4912C27.9698 11.4912 27.592 11.3999 27.2627 11.2173C26.943 11.0347 26.7153 10.804 26.5797 10.5252L26.725 10.3234C26.851 10.5637 27.0253 10.7607 27.2481 10.9145C27.4806 11.0683 27.7664 11.1452 28.1055 11.1452C28.6092 11.1452 29.0015 10.9866 29.2825 10.6694C29.5731 10.3426 29.7765 9.90525 29.8928 9.35736C30.009 8.79986 30.0671 8.17027 30.0671 7.46859C30.0671 6.6804 30.009 6.046 29.8928 5.5654C29.7765 5.07518 29.6022 4.71953 29.3697 4.49846C29.1372 4.26777 28.8562 4.15242 28.5269 4.15242C28.0909 4.15242 27.6938 4.32544 27.3353 4.67147C26.9866 5.01751 26.7735 5.53656 26.696 6.22863L26.5506 5.92585C26.6766 5.20494 26.9672 4.64744 27.4225 4.25335C27.8875 3.84964 28.4397 3.64779 29.079 3.64779Z" fill="#5F6AFF"/>
<path d="M35.2971 3.69104V12.5294C35.2971 12.9523 35.4182 13.2358 35.6603 13.38C35.9025 13.5242 36.2367 13.5963 36.663 13.5963V13.8991C36.4402 13.8895 36.1302 13.875 35.733 13.8558C35.3358 13.8462 34.9096 13.8414 34.4543 13.8414C34.1346 13.8414 33.8197 13.8462 33.5097 13.8558C33.1998 13.875 32.9624 13.8895 32.7977 13.8991V13.5963C33.1368 13.5963 33.3741 13.529 33.5097 13.3944C33.6551 13.2695 33.7277 13.0292 33.7277 12.6735V5.42122C33.7277 4.98867 33.6551 4.67147 33.5097 4.46962C33.3644 4.25815 33.0883 4.15242 32.6815 4.15242V3.84964C32.9915 3.87848 33.2918 3.89289 33.5824 3.89289C33.9021 3.89289 34.2072 3.87848 34.4979 3.84964C34.7885 3.81119 35.0549 3.75832 35.2971 3.69104ZM37.6075 3.64779C38.1112 3.64779 38.5617 3.78716 38.9589 4.06591C39.3657 4.33505 39.6854 4.73395 39.9179 5.26262C40.1504 5.79128 40.2667 6.44971 40.2667 7.2379C40.2667 7.81462 40.1989 8.36251 40.0632 8.88157C39.9276 9.39101 39.7193 9.84277 39.4384 10.2369C39.1672 10.6214 38.8233 10.9289 38.4067 11.1596C37.9901 11.3807 37.4961 11.4912 36.9245 11.4912C36.4983 11.4912 36.1205 11.3999 35.7911 11.2173C35.4714 11.0347 35.2438 10.804 35.1082 10.5252L35.2535 10.3234C35.3794 10.5637 35.5538 10.7607 35.7766 10.9145C36.0091 11.0683 36.2949 11.1452 36.6339 11.1452C37.1377 11.1452 37.53 10.9866 37.8109 10.6694C38.1015 10.3426 38.305 9.90525 38.4212 9.35736C38.5375 8.79986 38.5956 8.17027 38.5956 7.46859C38.5956 6.6804 38.5375 6.046 38.4212 5.5654C38.305 5.07518 38.1306 4.71953 37.8981 4.49846C37.6656 4.26777 37.3847 4.15242 37.0553 4.15242C36.6194 4.15242 36.2222 4.32544 35.8638 4.67147C35.515 5.01751 35.3019 5.53656 35.2244 6.22863L35.0791 5.92585C35.205 5.20494 35.4957 4.64744 35.951 4.25335C36.416 3.84964 36.9681 3.64779 37.6075 3.64779Z" fill="#5F6AFF"/>
<path d="M48 3.84964V4.138C47.8159 4.16684 47.6464 4.26296 47.4914 4.42636C47.3364 4.58016 47.1863 4.8493 47.041 5.23378L44.7741 11.2606L44.4254 11.6066L41.5918 4.95984C41.4078 4.58496 41.2285 4.35908 41.0542 4.28218C40.8895 4.19567 40.749 4.15242 40.6328 4.15242V3.84964C40.875 3.87848 41.1317 3.90251 41.4029 3.92173C41.6742 3.93134 41.9551 3.93615 42.2457 3.93615C42.5751 3.93615 42.9045 3.92654 43.2338 3.90731C43.5729 3.88809 43.8877 3.86886 44.1783 3.84964V4.15242C43.9459 4.15242 43.7376 4.17164 43.5535 4.21009C43.3791 4.23893 43.2629 4.33024 43.2048 4.48404C43.1563 4.62822 43.2048 4.87813 43.3501 5.23378L45.1519 9.63131L45.0502 9.67456L46.5178 5.8105C46.6631 5.42602 46.7213 5.11843 46.6922 4.88774C46.6631 4.64744 46.5614 4.46962 46.3871 4.35427C46.2127 4.22932 45.956 4.15723 45.6169 4.138V3.84964C45.7816 3.85925 45.9318 3.86886 46.0674 3.87848C46.2127 3.87848 46.3531 3.88328 46.4888 3.89289C46.6244 3.89289 46.76 3.89289 46.8956 3.89289C47.1088 3.89289 47.3074 3.88809 47.4914 3.87848C47.6852 3.86886 47.8547 3.85925 48 3.84964ZM44.7741 11.2606L44.251 12.6159C44.1541 12.8562 44.0524 13.058 43.9458 13.2214C43.849 13.3848 43.7424 13.5194 43.6262 13.6251C43.4809 13.7597 43.3016 13.8558 43.0885 13.9135C42.8754 13.9712 42.6623 14 42.4492 14C42.2457 14 42.052 13.9616 41.8679 13.8847C41.6935 13.8174 41.5482 13.7116 41.432 13.5675C41.3157 13.4233 41.2576 13.2455 41.2576 13.034C41.2576 12.7841 41.34 12.5822 41.5046 12.4284C41.6693 12.2746 41.8873 12.1977 42.1585 12.1977C42.4007 12.1977 42.6042 12.2602 42.7688 12.3852C42.9335 12.5197 43.0159 12.712 43.0159 12.9619C43.0159 13.1349 42.9674 13.2839 42.8706 13.4089C42.7834 13.5338 42.6671 13.6299 42.5218 13.6972C42.5509 13.7068 42.5799 13.7116 42.609 13.7116C42.6381 13.7116 42.6623 13.7116 42.6817 13.7116C42.9529 13.7116 43.1951 13.6203 43.4082 13.4377C43.6213 13.2647 43.8005 12.9811 43.9458 12.587L44.469 11.2029L44.7741 11.2606Z" fill="#5F6AFF"/>
</svg>
