<svg width="15" height="15" viewBox="0 0 15 15" fill="none" xmlns="http://www.w3.org/2000/svg">
<path d="M10.9552 1.32715C11.1337 1.14871 11.3455 1.00716 11.5787 0.910593C11.8118 0.814023 12.0617 0.764319 12.314 0.764319C12.5664 0.764319 12.8163 0.814023 13.0494 0.910593C13.2825 1.00716 13.4944 1.14871 13.6728 1.32715C13.8512 1.50559 13.9928 1.71742 14.0894 1.95056C14.1859 2.18371 14.2356 2.43359 14.2356 2.68594C14.2356 2.93829 14.1859 3.18817 14.0894 3.42131C13.9928 3.65445 13.8512 3.86629 13.6728 4.04472L4.50099 13.2165L0.764319 14.2356L1.78341 10.499L10.9552 1.32715Z" stroke="#5F6AFF" stroke-width="1.5" stroke-linecap="round" stroke-linejoin="round"/>
</svg>
